<svg width="246" height="261" viewBox="0 0 246 261" fill="none" xmlns="http://www.w3.org/2000/svg">
  <g opacity="0.8" filter="url(#filter0_d_2_3)">
    <path d="M207.146 78.4571C206.772 77.4339 205.773 76.7435 204.651 76.7374L138.283 76.3773C137.613 76.3737 136.968 76.614 136.475 77.0499L114.122 96.8159L86.5701 69.8837C86.5402 69.8563 86.5013 69.8394 86.4719 69.8116C86.3765 69.7258 86.2674 69.6558 86.1601 69.5823C86.0446 69.5078 85.936 69.4356 85.8141 69.3809C85.7778 69.3645 85.7507 69.3362 85.7131 69.321C85.6365 69.2894 85.5575 69.2864 85.4795 69.2635C85.3443 69.2215 85.2137 69.1817 85.0735 69.1633C84.9464 69.1438 84.8229 69.1431 84.6957 69.1424C84.5686 69.1417 84.4464 69.1411 84.3178 69.1592C84.1774 69.1787 84.0437 69.2171 83.9086 69.2576C83.8345 69.2801 83.7541 69.2823 83.6799 69.3131C83.6421 69.3278 83.6161 69.3532 83.5811 69.3719C83.4564 69.4274 83.3416 69.5011 83.2267 69.576C83.1201 69.6444 83.0131 69.7128 82.9169 69.7954C82.8845 69.8229 82.8481 69.8389 82.8152 69.8664L59.2175 92.4633C58.4533 93.1952 58.219 94.2994 58.6272 95.2639C59.034 96.2284 60.0024 96.8593 61.076 96.8651L81.9046 96.9781L81.7618 126.564C81.7618 126.571 81.7645 126.576 81.7645 126.581C81.7645 126.587 81.7617 126.592 81.7617 126.596C81.7616 126.617 81.7747 126.637 81.7773 126.66C81.7899 126.963 81.8625 127.251 81.9757 127.52C82.0103 127.598 82.0462 127.674 82.0863 127.749C82.2213 127.996 82.3878 128.223 82.5958 128.415C82.6229 128.441 82.6332 128.476 82.6603 128.501L111.347 153.098C111.369 153.115 111.398 153.123 111.422 153.144C111.545 153.539 111.736 153.914 112.044 154.217L134.554 176.223C135.061 176.716 135.741 176.984 136.432 176.987C136.775 176.989 137.12 176.928 137.451 176.797C138.447 176.405 139.098 175.469 139.103 174.429L139.299 133.93L206.319 81.3104C207.188 80.6257 207.52 79.4833 207.146 78.4571ZM87.1053 120.379L87.2305 94.4313L87.3102 77.9176L109.153 99.2689L87.1053 120.379ZM67.5151 91.7517L81.9918 77.8888L81.9245 91.8299L67.5151 91.7517ZM133.808 168.189L117.807 152.545L133.95 138.877L133.808 168.189ZM113.177 147.801L88.3893 126.547L139.299 81.529L197.189 81.8431L113.177 147.801Z" fill="#030303" />
    <path d="M205.337 79.841L229.294 111.353C229.919 112.174 229.042 113.288 228.097 112.873L184.815 93.9029L139.297 80.4644C138.182 80.135 138.431 78.4886 139.594 78.5054L204.555 79.4461C204.862 79.4505 205.151 79.5962 205.337 79.841Z" stroke="black" stroke-width="5" />
  </g>
  <path d="M189.974 148.906L137.249 144.099C136.663 144.046 136.158 144.507 136.158 145.095L136.158 173.418C136.158 174.142 136.904 174.626 137.566 174.331L190.29 150.815C191.231 150.395 191 148.999 189.974 148.906Z" stroke="black" stroke-width="5" />
  <defs>
    <filter id="filter0_d_2_3" x="54.429" y="69.1422" width="181.591" height="115.845" filterUnits="userSpaceOnUse" color-interpolation-filters="sRGB">
      <feFlood flood-opacity="0" result="BackgroundImageFix" />
      <feColorMatrix in="SourceAlpha" type="matrix" values="0 0 0 0 0 0 0 0 0 0 0 0 0 0 0 0 0 0 127 0" result="hardAlpha" />
      <feOffset dy="4" />
      <feGaussianBlur stdDeviation="2" />
      <feComposite in2="hardAlpha" operator="out" />
      <feColorMatrix type="matrix" values="0 0 0 0 0 0 0 0 0 0 0 0 0 0 0 0 0 0 0.25 0" />
      <feBlend mode="normal" in2="BackgroundImageFix" result="effect1_dropShadow_2_3" />
      <feBlend mode="normal" in="SourceGraphic" in2="effect1_dropShadow_2_3" result="shape" />
    </filter>
  </defs>
</svg>