<svg width="158" height="105" viewBox="0 0 158 105" fill="none" xmlns="http://www.w3.org/2000/svg">
<path d="M3.14298 21.1762L22.7345 4.50259C23.4023 3.93421 24.4262 4.43953 24.3813 5.31534L23.5476 21.5721C23.5208 22.0952 23.0948 22.509 22.5711 22.5206L3.81331 22.9375C2.87234 22.9584 2.42622 21.7862 3.14298 21.1762Z" fill="#FF3A3A" stroke="black" stroke-width="5"/>
<path d="M23.5 53.7665L23.5 4.4754C23.5 3.57602 24.5947 3.13379 25.2194 3.78081L50.7778 30.252C51.172 30.6603 51.1478 31.3145 50.7244 31.6925L25.166 54.5125C24.5216 55.0879 23.5 54.6304 23.5 53.7665Z" fill="#FFF500" stroke="black" stroke-width="5"/>
<path d="M76.086 9.35539L24.3573 53.764C23.9017 54.1551 23.8911 54.8568 24.3347 55.2615L51.367 79.9226C51.7313 80.2549 52.2834 80.2721 52.6677 79.9631L122.016 24.1938C122.644 23.6887 122.447 22.6863 121.674 22.4562L77.0229 9.15575C76.697 9.05867 76.3441 9.13388 76.086 9.35539Z" fill="#DB00FF" stroke="black" stroke-width="5"/>
<path d="M121.36 22.9567L78.3434 9.62146C77.2353 9.27794 77.5029 7.6396 78.6628 7.66658L135.423 8.98658C135.78 8.99488 136.106 9.19313 136.277 9.50664L154.537 42.9084C155.039 43.8269 153.971 44.8018 153.102 44.2183L121.622 23.0816C121.541 23.0275 121.453 22.9854 121.36 22.9567Z" fill="#00FF0A" stroke="black" stroke-width="5"/>
<path d="M72.2853 101.248L51.8151 80.3328C51.3864 79.8948 51.4489 79.1779 51.9468 78.8208L72.4171 64.1356C73.0788 63.6609 74 64.1338 74 64.9481L74 100.549C74 101.445 72.9121 101.888 72.2853 101.248Z" fill="#0500FF" stroke="black" stroke-width="5"/>
<path d="M127.739 76.8843L75.2071 72.0956C74.6369 72.0436 74.1396 72.4801 74.1171 73.0522L73.0612 99.9417C73.0326 100.67 73.7678 101.183 74.4417 100.905L128.03 78.8046C128.996 78.4061 128.78 76.9792 127.739 76.8843Z" fill="#FF8A00" stroke="black" stroke-width="5"/>
</svg>
